# xmcd
#
# Track frame offsets:
#	150
#	15442
#	29262
#	45760
#	57990
#	73127
#	86637
#	100437
#	117095
#	132607
#	148597
#	163132
#	180645
#	194445
#	205370
#	220452
#	237260
#	252757
#	268595
#
# Disc length: 3728 seconds
#
# Revision: 6
# Processed by: cddbd v1.5.2PL0 Copyright (c) Steve Scherf et al.
# Submitted via: audiograbber 1.83.01
#
DISCID=1a0e8e13
DTITLE=Various Artist - Country Duets (I Love Country)
DYEAR=1988
DGENRE=Country
TTITLE0=Merle Haggard and George Jones - Making Believe
TTITLE1=Mickey Gilley and Charly McClain - Candy Man
TTITLE2=Tammy Wynette and Mark Gray - Sometimes When We Touch
TTITLE3=Ray Charles and B.J. Thomas - Rock And Roll Shoes
TTITLE4=Ricky Skaggs and Dolly Parton - A Vision Of Mother
TTITLE5=Bobby Bare and Lacy J. Dalton - It's A Dirty Job
TTITLE6=George Jones and Tammy Wynette - Golden Ring
TTITLE7=David Allan Coe and Bill Anderson - Get A Little Dirt On Your Hands
TTITLE8=Rosanne Cash and Bobby Bare - No More Memories Hangin' Round
TTITLE9=Merle Haggard and Willie Nelson - All The Soft Places To Fall
TTITLE10=Charlie Rich and Janie Fricke - On My Knees
TTITLE11=Ronny McDowell and Conway Twitty - It's Only Make Believe
TTITLE12=Moe Bandy and Joe Stampley - Where's The Dress
TTITLE13=George Jones and Tammy Wynette - A Pair Of Old Sneakers
TTITLE14=George Jones and Emmylou Harris - All Fall Down
TTITLE15=Jonny Cash and June Carter Cash - The City Of New Orleans
TTITLE16=Louise Mandrell and R.C. Bannon - I Thought You'd Never Ask
TTITLE17=Lacy J. Dalton and Earl Scruggs - Love Gone Gold
TTITLE18=Earl Scruggs and Tom T. Hall - There Ain't No Country Music On This Juke
TTITLE18=Box
EXTD=CBS Disques S.A. - 1988 YEAR: 1988
EXTT0=
EXTT1=
EXTT2=
EXTT3=
EXTT4=
EXTT5=
EXTT6=
EXTT7=
EXTT8=
EXTT9=
EXTT10=
EXTT11=
EXTT12=
EXTT13=
EXTT14=
EXTT15=
EXTT16=
EXTT17=
EXTT18=
PLAYORDER=
